<?xml version="1.0" standalone="no"?>
<!DOCTYPE svg PUBLIC "-//W3C//DTD SVG 20010904//EN"
 "http://www.w3.org/TR/2001/REC-SVG-20010904/DTD/svg10.dtd">
<svg version="1.0" xmlns="http://www.w3.org/2000/svg"
 width="820.000000pt" height="558.000000pt" viewBox="0 0 820.000000 558.000000"
 preserveAspectRatio="xMidYMid meet">

<g transform="translate(0.000000,558.000000) scale(0.100000,-0.100000)"
fill="#000000" stroke="none">
<path d="M1154 5167 c-2 -7 -3 -98 -2 -202 l3 -190 3269 -3 3268 -2 -7 -1800
-8 -1800 209 2 209 3 3 2003 2 2002 -3470 0 c-2812 0 -3472 -2 -3476 -13z"/>
<path d="M527 4543 c-4 -3 -7 -96 -7 -205 l0 -198 3270 0 3270 0 -6 -1800 -7
-1800 209 2 209 3 0 2000 0 2000 -3466 3 c-1906 1 -3469 -1 -3472 -5z"/>
<path d="M100 2020 l0 -1900 3375 0 3375 0 0 1894 0 1893 -37 7 c-21 3 -1540
6 -3375 6 l-3338 0 0 -1900z m6325 5 l0 -1480 -2950 0 -2950 0 -3 1470 c-1
809 0 1476 3 1483 3 10 599 12 2952 10 l2948 -3 0 -1480z"/>
<path d="M1147 3201 c7 -102 -14 -165 -79 -237 -64 -69 -130 -98 -223 -97 -38
0 -79 2 -90 4 -20 4 -20 -2 -23 -852 l-2 -857 82 5 c110 7 182 -19 249 -88 68
-70 93 -140 86 -246 l-5 -83 1111 0 c611 0 1108 2 1106 4 -2 2 -44 14 -93 25
-173 41 -328 131 -467 270 -455 458 -507 1277 -114 1806 158 213 376 358 611
409 62 13 -37 14 -1043 15 l-1111 1 5 -79z m540 -773 c64 -30 136 -117 168
-202 92 -244 -13 -544 -211 -602 -234 -68 -440 230 -369 534 55 233 237 352
412 270z"/>
<path d="M3689 3255 c603 -156 965 -880 796 -1591 -105 -442 -415 -787 -794
-883 -46 -11 -86 -23 -89 -26 -3 -3 493 -5 1102 -5 l1108 0 -8 42 c-14 75 -5
139 27 205 34 71 81 116 157 151 49 22 64 24 141 20 l86 -5 -3 859 -2 858 -28
-7 c-15 -5 -54 -8 -87 -8 -189 2 -334 193 -291 383 l8 32 -1109 0 -1108 -1 94
-24z m1786 -822 c55 -28 92 -62 130 -119 99 -149 108 -354 23 -522 -117 -233
-385 -235 -511 -4 -59 109 -75 281 -37 405 63 203 245 314 395 240z"/>
<path d="M3408 3004 l-3 -106 -73 -19 c-138 -35 -234 -93 -294 -177 -72 -100
-92 -177 -86 -326 3 -88 8 -110 35 -168 60 -129 158 -206 392 -313 187 -85
238 -120 272 -187 34 -66 19 -160 -34 -216 -51 -55 -92 -67 -232 -67 -145 0
-199 14 -319 82 -93 53 -103 56 -126 33 -17 -17 -20 -34 -20 -122 0 -82 4
-109 19 -133 37 -61 219 -129 386 -143 l80 -7 3 -97 3 -98 105 0 106 0 -2 103
c-1 56 -1 107 -1 113 1 6 20 16 44 23 123 37 259 147 311 253 78 160 75 350
-9 487 -66 110 -150 169 -381 274 -222 101 -284 156 -284 255 0 114 84 182
224 182 81 0 162 -22 267 -71 47 -23 94 -39 104 -37 27 5 38 59 33 162 -4 84
-6 90 -35 116 -36 33 -115 64 -210 83 l-68 14 -3 106 -3 107 -99 0 -99 0 -3
-106z"/>
</g>
</svg>
